<svg xmlns="http://www.w3.org/2000/svg" width="351.798" height="157.247" viewBox="0 0 351.798 157.247">
  <g id="Group_755" data-name="Group 755" transform="translate(0 -3158.958)">
    <path id="Path_324" data-name="Path 324" d="M875.982,744.31H593.951l32.767-40.958-32.767-40.963H875.982l32.767,40.963Z" transform="translate(-556.951 2540.749)" fill="#b88c0b" fill-rule="evenodd"/>
    <path id="Path_325" data-name="Path 325" d="M590.3,799.3a2.136,2.136,0,0,1-1.668-3.469l54.908-68.637-54.908-68.638a2.136,2.136,0,0,1,3.336-2.667l57.042,71.3-57.042,71.3A2.144,2.144,0,0,1,590.3,799.3Z" transform="translate(-575.91 2516.909)" fill="#b88c0b"/>
    <path id="Path_330" data-name="Path 330" d="M613.589,699.2a14.114,14.114,0,1,0-14.11,14.11A14.11,14.11,0,0,0,613.589,699.2Z" transform="translate(-585.361 2473.877)" fill="#b88c0b" fill-rule="evenodd"/>
  </g>
</svg>
