<svg xmlns="http://www.w3.org/2000/svg" width="282" height="18.091" viewBox="0 0 282 18.091">
  <g id="Group_737" data-name="Group 737" transform="translate(-542 -421.909)">
    <g id="Path_209" data-name="Path 209" transform="translate(814 423)" fill="#fff" fill-rule="evenodd">
      <path d="M 1.127388000488281 16.50000762939453 C 0.6915979981422424 16.50000762939453 0.2823179662227631 16.32797622680664 -0.02506202459335327 16.01561737060547 C -0.6542920470237732 15.37617683410645 -0.6542920470237732 14.33571720123291 -0.02506202459335327 13.6962776184082 L 5.581428527832031 7.999816417694092 L 2.381988048553467 4.749577045440674 L -0.02600202523171902 2.303357124328613 C -0.3315220177173615 1.993667125701904 -0.5000020265579224 1.581667184829712 -0.5000020265579224 1.143637180328369 C -0.5000020265579224 0.7056071758270264 -0.3315220177173615 0.2935971617698669 -0.02561202459037304 -0.01648283191025257 L 0.3314479887485504 -0.3784028291702271 L 0.3890852928161621 -0.3196141421794891 C 0.6163286566734314 -0.4366292953491211 0.8701283931732178 -0.5000028610229492 1.127377986907959 -0.5000028610229492 C 1.557247996330261 -0.5000028610229492 1.977458000183105 -0.3230628371238708 2.280267953872681 -0.01455283164978027 L 9.026067733764648 6.84063720703125 C 9.331527709960938 7.150277137756348 9.499998092651367 7.562277317047119 9.499998092651367 8.000297546386719 C 9.499998092651367 8.43830680847168 9.331527709960938 8.850307464599609 9.025628089904785 9.160407066345215 L 2.279828071594238 16.01561737060547 C 1.972447991371155 16.32797622680664 1.563167929649353 16.50000762939453 1.127388000488281 16.50000762939453 Z" stroke="none"/>
      <path d="M 1.127377986907959 -1.9073486328125e-06 C 0.8286876678466797 -1.9073486328125e-06 0.5422677993774414 0.1207771301269531 0.3313283920288086 0.3356876373291016 L 0.3303279876708984 0.3346672058105469 C 0.1188478469848633 0.5490274429321289 -1.9073486328125e-06 0.8400974273681641 -1.9073486328125e-06 1.143636703491211 C -1.9073486328125e-06 1.44716739654541 0.1188478469848633 1.738237380981445 0.3303279876708984 1.952597618103027 C 0.3303279876708984 1.952597618103027 1.250137805938721 2.887017250061035 2.738317966461182 4.39881706237793 C 4.22648811340332 5.910616874694824 6.283007621765137 7.999787330627441 6.283007621765137 7.999787330627441 L 0.3313283920288086 14.04697704315186 C -0.1083221435546875 14.4937572479248 -0.1083221435546875 15.21813678741455 0.3313283920288086 15.66490745544434 C 0.7709779739379883 16.11169624328613 1.483787536621094 16.11169624328613 1.92343807220459 15.66490745544434 L 8.669677734375 8.809267044067383 C 8.881148338317871 8.594897270202637 8.999998092651367 8.303836822509766 8.999998092651367 8.000297546386719 C 8.999998092651367 7.696757316589355 8.881148338317871 7.405696868896484 8.669677734375 7.191337585449219 L 1.92343807220459 0.3356876373291016 C 1.712498188018799 0.1207771301269531 1.42606782913208 -1.9073486328125e-06 1.127377986907959 -1.9073486328125e-06 M 0.3325681686401367 -1.091472625732422 L 0.5130138397216797 -0.9074172973632812 C 0.7112150192260742 -0.9681301116943359 0.9184050559997559 -1.000001907348633 1.127377986907959 -1.000001907348633 C 1.690608024597168 -1.000001907348633 2.240878105163574 -0.7684822082519531 2.637107849121094 -0.3647937774658203 L 9.382448196411133 6.489936828613281 C 9.780367851257324 6.89329719543457 9.999998092651367 7.430006980895996 9.999998092651367 8.000297546386719 C 9.999998092651367 8.570577621459961 9.780378341674805 9.10728645324707 9.381587982177734 9.511547088623047 L 2.636208057403564 16.36630630493164 C 2.234077930450439 16.77494812011719 1.698227882385254 16.99999618530273 1.127377986907959 16.99999618530273 C 0.5565080642700195 16.99999618530273 0.02066802978515625 16.77494812011719 -0.3814516067504883 16.36629676818848 C -1.200971603393555 15.53349685668945 -1.200982093811035 14.17840766906738 -0.3814420700073242 13.34557723999023 L 4.879859447479248 7.999845504760742 L -0.3823318481445312 2.654107093811035 C -0.7803621292114258 2.250657081604004 -1.000001907348633 1.713947296142578 -1.000001907348633 1.143636703491211 C -1.000001907348633 0.5733270645141602 -0.7803621292114258 0.03660774230957031 -0.3815422058105469 -0.3676433563232422 L 0.3325681686401367 -1.091472625732422 Z" stroke="none" fill="#fff"/>
    </g>
    <g id="Path_4385" data-name="Path 4385" transform="translate(552 439) rotate(180)" fill="#fff" fill-rule="evenodd">
      <path d="M 1.127377033233643 16.50000190734863 C 0.8701274394989014 16.50000190734863 0.616327702999115 16.4366283416748 0.3890843093395233 16.31961441040039 L 0.3324470221996307 16.37738227844238 L -0.02561297826468945 16.01648330688477 C -0.3315229713916779 15.70640277862549 -0.5000029802322388 15.29439258575439 -0.5000029802322388 14.85636329650879 C -0.5000029802322388 14.41833305358887 -0.3315229713916779 14.00633239746094 -0.02561297826468945 13.69625282287598 L 2.38198709487915 11.25042247772217 L 5.581427574157715 8.000184059143066 L -0.02503297850489616 2.303752899169922 C -0.6543029546737671 1.664272785186768 -0.6543029546737671 0.623822808265686 -0.02505297958850861 -0.01560716796666384 C 0.2823170125484467 -0.3279671669006348 0.691597044467926 -0.4999971687793732 1.127387046813965 -0.4999971687793732 C 1.563166975975037 -0.4999971687793732 1.972447037696838 -0.3279671669006348 2.279827117919922 -0.01559716835618019 L 9.026066780090332 6.840033054351807 C 9.331526756286621 7.149693012237549 9.499997138977051 7.561692714691162 9.499997138977051 7.999702930450439 C 9.499997138977051 8.437723159790039 9.331526756286621 8.849722862243652 9.025616645812988 9.159812927246094 L 2.279827117919922 16.01501274108887 C 1.977457046508789 16.32306289672852 1.557247042655945 16.50000190734863 1.127377033233643 16.50000190734863 Z" stroke="none"/>
      <path d="M 1.127377033233643 16.00000190734863 C 1.426077008247375 16.00000190734863 1.712496995925903 15.87922286987305 1.923436999320984 15.6643123626709 L 8.669676780700684 8.808662414550781 C 8.881147384643555 8.594303131103516 8.999997138977051 8.303242683410645 8.999997138977051 7.999702930450439 C 8.999997138977051 7.696162700653076 8.881147384643555 7.405102729797363 8.669676780700684 7.190732955932617 L 1.923436999320984 0.3350928425788879 C 1.483786940574646 -0.111697182059288 0.7709770798683167 -0.111697182059288 0.3313270211219788 0.3350928425788879 C -0.1083229780197144 0.7818628549575806 -0.1083229780197144 1.506242871284485 0.3313270211219788 1.953022837638855 L 6.283007144927979 8.000212669372559 C 6.283007144927979 8.000212669372559 4.226487159729004 10.08938312530518 2.738317012786865 11.60118293762207 C 1.250146985054016 13.11298274993896 0.330327033996582 14.04740238189697 0.330327033996582 14.04740238189697 C 0.118847019970417 14.26176261901855 -2.9791260658385e-06 14.55283260345459 -2.9791260658385e-06 14.85636329650879 C -2.9791260658385e-06 15.15990257263184 0.118847019970417 15.45097255706787 0.330327033996582 15.66533279418945 L 0.3313270211219788 15.6643123626709 C 0.5422670245170593 15.87922286987305 0.8286870121955872 16.00000190734863 1.127377033233643 16.00000190734863 M 0.3335670232772827 17.09045219421387 L -0.381542980670929 16.36764335632324 C -0.7803629636764526 15.96339321136475 -1.000002980232239 15.42667293548584 -1.000002980232239 14.85636329650879 C -1.000002980232239 14.28605270385742 -0.7803629636764526 13.749342918396 -0.381542980670929 13.3450927734375 L 4.879858493804932 8.000154495239258 L -0.3813829720020294 2.654482841491699 C -1.200982928276062 1.821592807769775 -1.200973033905029 0.466502845287323 -0.381432980298996 -0.3663071691989899 C 0.02068702131509781 -0.7749471664428711 0.5565370321273804 -0.9999971389770508 1.127387046813965 -0.9999971389770508 C 1.698256969451904 -0.9999971389770508 2.234097003936768 -0.7749471664428711 2.63621711730957 -0.3662971556186676 L 9.382447242736816 6.489332675933838 C 9.780377388000488 6.892713069915771 9.999997138977051 7.429422855377197 9.999997138977051 7.999702930450439 C 9.999997138977051 8.569993019104004 9.780366897583008 9.10670280456543 9.381567001342773 9.510952949523926 L 2.636207103729248 16.36571311950684 C 2.240876913070679 16.76848220825195 1.690607070922852 17.00000190734863 1.127377033233643 17.00000190734863 C 0.9184039831161499 17.00000190734863 0.7112136483192444 16.96813011169434 0.5130127668380737 16.90741729736328 L 0.3335670232772827 17.09045219421387 Z" stroke="none" fill="#fff"/>
    </g>
    <line id="Line_25" data-name="Line 25" x2="252" transform="translate(557 431)" fill="none" stroke="#fff" stroke-linecap="round" stroke-width="4"/>
  </g>
</svg>
