<svg xmlns="http://www.w3.org/2000/svg" width="232" height="396.901" viewBox="0 0 232 396.901">
  <g id="Group_771" data-name="Group 771" transform="translate(0 1)">
    <rect id="Rectangle_170" data-name="Rectangle 170" width="183" height="121" rx="15" transform="translate(25 -0.475)" fill="#113351"/>
    <path id="Path_4391" data-name="Path 4391" d="M23089.1,793.9s33.107-33.381,82.357-34.2V732.85h-69.131s-14.252-.149-14.162-14.163,0-91.073,0-91.073.107-14.995,14.994-14.995h149.574s16.971.653,16.971,16.972v89.5s-.252,13.762-13.76,13.762h-71.211V759.7s51.3,1.094,82.766,34.2" transform="translate(-23062.664 -612.619)" fill="none" stroke="#10739e" stroke-width="2"/>
    <circle id="Ellipse_1424" data-name="Ellipse 1424" cx="7" cy="7" r="7" transform="translate(17 175.901)" fill="#10739e"/>
    <circle id="Ellipse_1425" data-name="Ellipse 1425" cx="7" cy="7" r="7" transform="translate(199 175.901)" fill="#10739e"/>
    <g id="Ellipse_1426" data-name="Ellipse 1426" transform="translate(0 163.901)" fill="none" stroke="#10739e" stroke-width="2">
      <circle cx="116" cy="116" r="116" stroke="none"/>
      <circle cx="116" cy="116" r="115" fill="none"/>
    </g>
    <g id="Path_4392" data-name="Path 4392" transform="translate(19 182.901)" fill="#113351">
      <path d="M 97 191 C 90.62026214599609 191 84.24542236328125 190.3574523925781 78.05255126953125 189.0902099609375 C 72.01857757568359 187.85546875 66.08341979980469 186.0131072998047 60.41186904907227 183.6142425537109 C 54.84263229370117 181.2586517333984 49.47086715698242 178.3429260253906 44.4457893371582 174.9480590820312 C 39.46768569946289 171.5849151611328 34.78639602661133 167.7224731445312 30.53194808959961 163.4680480957031 C 26.27752685546875 159.2136077880859 22.41507911682129 154.5323181152344 19.05194664001465 149.5542144775391 C 15.65707874298096 144.5291290283203 12.74134254455566 139.1573638916016 10.38576316833496 133.588134765625 C 7.986894607543945 127.9165802001953 6.144526481628418 121.9814224243164 4.909789562225342 115.9474487304688 C 3.642552614212036 109.7545776367188 3 103.3797378540039 3 97 C 3 90.62026214599609 3.642552614212036 84.24542236328125 4.909789562225342 78.05255126953125 C 6.144526481628418 72.01857757568359 7.986894607543945 66.08341979980469 10.38576316833496 60.41186904907227 C 12.74134254455566 54.84263229370117 15.65707874298096 49.47086715698242 19.05194664001465 44.4457893371582 C 22.41507911682129 39.46768569946289 26.27752685546875 34.78639602661133 30.53194808959961 30.53194808959961 C 34.78639602661133 26.27752685546875 39.46768569946289 22.41507911682129 44.4457893371582 19.05194664001465 C 49.47086715698242 15.65707874298096 54.84263229370117 12.74134254455566 60.41186904907227 10.38576316833496 C 66.08341979980469 7.986894607543945 72.01857757568359 6.144526481628418 78.05255126953125 4.909789562225342 C 84.24542236328125 3.642552614212036 90.62026214599609 3 97 3 C 103.3797378540039 3 109.7545776367188 3.642552614212036 115.9474487304688 4.909789562225342 C 121.9814224243164 6.144526481628418 127.9165802001953 7.986894607543945 133.588134765625 10.38576316833496 C 139.1573638916016 12.74134254455566 144.5291290283203 15.65707874298096 149.5542144775391 19.05194664001465 C 154.5323181152344 22.41507911682129 159.2136077880859 26.27752685546875 163.4680480957031 30.53194808959961 C 167.7224731445312 34.78639602661133 171.5849151611328 39.46768569946289 174.9480590820312 44.4457893371582 C 178.3429260253906 49.47086715698242 181.2586517333984 54.84263229370117 183.6142425537109 60.41186904907227 C 186.0131072998047 66.08341979980469 187.85546875 72.01857757568359 189.0902099609375 78.05255126953125 C 190.3574523925781 84.24542236328125 191 90.62026214599609 191 97 C 191 103.3797378540039 190.3574523925781 109.7545776367188 189.0902099609375 115.9474487304688 C 187.85546875 121.9814224243164 186.0131072998047 127.9165802001953 183.6142425537109 133.588134765625 C 181.2586517333984 139.1573638916016 178.3429260253906 144.5291290283203 174.9480590820312 149.5542144775391 C 171.5849151611328 154.5323181152344 167.7224731445312 159.2136077880859 163.4680480957031 163.4680480957031 C 159.2136077880859 167.7224731445312 154.5323181152344 171.5849151611328 149.5542144775391 174.9480590820312 C 144.5291290283203 178.3429260253906 139.1573638916016 181.2586517333984 133.588134765625 183.6142425537109 C 127.9165802001953 186.0131072998047 121.9814224243164 187.85546875 115.9474487304688 189.0902099609375 C 109.7545776367188 190.3574523925781 103.3797378540039 191 97 191 Z" stroke="none"/>
      <path d="M 97 6 C 46.82243347167969 6 6 46.82243347167969 6 97 C 6 147.1775665283203 46.82243347167969 188 97 188 C 147.1775665283203 188 188 147.1775665283203 188 97 C 188 46.82243347167969 147.1775665283203 6 97 6 M 97 0 C 150.5716247558594 0 194 43.42837524414062 194 97 C 194 150.5716247558594 150.5716247558594 194 97 194 C 43.42837524414062 194 0 150.5716247558594 0 97 C 0 43.42837524414062 43.42837524414062 0 97 0 Z" stroke="none" fill="#10739e"/>
    </g>
  </g>
</svg>
