<svg xmlns="http://www.w3.org/2000/svg" xmlns:xlink="http://www.w3.org/1999/xlink" width="72.546" height="54.469" viewBox="0 0 72.546 54.469">
  <defs>
    <linearGradient id="linear-gradient" x1="-0.969" y1="1.684" x2="-0.968" y2="1.684" gradientUnits="objectBoundingBox">
      <stop offset="0" stop-color="#5ec9c9"/>
      <stop offset="1" stop-color="#4a6bbc"/>
    </linearGradient>
    <linearGradient id="linear-gradient-2" x1="-7.619" y1="15.284" x2="-7.614" y2="15.284" gradientUnits="objectBoundingBox">
      <stop offset="0" stop-color="#77d2da"/>
      <stop offset="1" stop-color="#4a6bbc"/>
    </linearGradient>
    <linearGradient id="linear-gradient-3" x1="-3.202" y1="3.391" x2="-3.2" y2="3.391" gradientUnits="objectBoundingBox">
      <stop offset="0" stop-color="#4da9ad"/>
      <stop offset="1" stop-color="#3c589e"/>
    </linearGradient>
    <linearGradient id="linear-gradient-4" x1="-2.764" y1="3.369" x2="-2.762" y2="3.369" xlink:href="#linear-gradient-3"/>
    <linearGradient id="linear-gradient-5" x1="-0.969" y1="2.309" x2="-0.968" y2="2.309" xlink:href="#linear-gradient-3"/>
    <linearGradient id="linear-gradient-6" x1="-4.601" y1="2.36" x2="-4.597" y2="2.36" gradientUnits="objectBoundingBox">
      <stop offset="0" stop-color="#918f8f"/>
      <stop offset="1" stop-color="#706c84"/>
    </linearGradient>
  </defs>
  <g id="Logo_Footer" data-name="Logo Footer" transform="translate(-189.999 -132.545)">
    <g id="logo-logo" transform="translate(203.875 132.544)">
      <g id="Group_726" data-name="Group 726" transform="translate(0 0)">
        <g id="path28" transform="translate(0.042)">
          <path id="Path_235" data-name="Path 235" d="M634.465-1055.829H612.04l5.411,8.011,4.39,6.5,5.11,7.556-5.11,7.556-4.383,6.494-5.417,8.018h22.425a22.065,22.065,0,0,0,22.068-22.069A22.065,22.065,0,0,0,634.465-1055.829Zm0,36.776h-8.507l5.333-7.892a7.536,7.536,0,0,0,3.174.7,7.512,7.512,0,0,0,7.514-7.515,7.512,7.512,0,0,0-7.514-7.515,7.532,7.532,0,0,0-3.174.7l-5.333-7.892h8.507a14.714,14.714,0,0,1,14.714,14.708,14.713,14.713,0,0,1-14.714,14.708" transform="translate(-612.04 1055.829)" fill="url(#linear-gradient)"/>
        </g>
        <g id="path44" transform="translate(18.546 15.93)">
          <path id="Path_236" data-name="Path 236" d="M883.649-826.975c0,1.417-1.812,1.25-4.045,1.25s-4.046.167-4.046-1.25,1.811-2.565,4.046-2.565,4.045,1.149,4.045,2.565" transform="translate(-875.558 829.54)" fill="url(#linear-gradient-2)"/>
        </g>
        <g id="path60" transform="translate(12.391 21.157)">
          <path id="Path_237" data-name="Path 237" d="M791.78-740.958l5.333-7.892a7.534,7.534,0,0,0,3.174.7,7.512,7.512,0,0,0,7.514-7.515,7.525,7.525,0,0,0-.075-1,7.507,7.507,0,0,1-7.439,6.51,7.531,7.531,0,0,1-3.174-.7l-6.692,9.9h1.358" transform="translate(-790.422 756.671)" fill="url(#linear-gradient-3)"/>
        </g>
        <g id="path92" transform="translate(0 0.079)">
          <path id="Path_238" data-name="Path 238" d="M621.84-1041.317l5.11,7.556.679-1-5.79-8.561-4.39-6.5-4.053-6H612.04l5.411,8.011,4.39,6.5" transform="translate(-612.04 1055.829)" fill="url(#linear-gradient-4)"/>
        </g>
        <g id="path108" transform="translate(0.042 21.1)">
          <path id="Path_239" data-name="Path 239" d="M634.465-735.607H613.4l-1.358,2.01h22.425a22.065,22.065,0,0,0,22.068-22.069c0-.337-.011-.672-.025-1a22.063,22.063,0,0,1-22.043,21.064" transform="translate(-612.04 756.671)" fill="url(#linear-gradient-5)"/>
        </g>
        <g id="path124" transform="translate(0.356 8.015)">
          <path id="Path_240" data-name="Path 240" d="M622.159-942.054l4.39,6.5a14.618,14.618,0,0,0-2.09,7.556,14.619,14.619,0,0,0,2.09,7.556l-4.383,6.494-.021-.014A21.993,21.993,0,0,1,617.105-928a22.024,22.024,0,0,1,5.054-14.058" transform="translate(-617.105 942.054)" fill="url(#linear-gradient-6)"/>
        </g>
      </g>
    </g>
    <g id="text-logo-path" transform="translate(189.999 180.35)">
      <path id="Path_241" data-name="Path 241" d="M9.177-88.545h0v-5.079a.571.571,0,0,1,.043-.22.58.58,0,0,1,.119-.183.537.537,0,0,1,.18-.121.582.582,0,0,1,.225-.043h3.042A2.722,2.722,0,0,1,13.822-94a2.506,2.506,0,0,1,.822.539,2.5,2.5,0,0,1,.545.824,2.713,2.713,0,0,1,.2,1.043h0v1.014a2.71,2.71,0,0,1-.2,1.044,2.485,2.485,0,0,1-.545.821,2.477,2.477,0,0,1-.822.539,2.7,2.7,0,0,1-1.036.2H9.744a.582.582,0,0,1-.225-.043.578.578,0,0,1-.18-.119.548.548,0,0,1-.119-.18A.582.582,0,0,1,9.177-88.545Zm1.126-4.52v3.96h2.483a1.648,1.648,0,0,0,.6-.105,1.373,1.373,0,0,0,.466-.3,1.334,1.334,0,0,0,.3-.463,1.653,1.653,0,0,0,.105-.6h0v-1.014a1.663,1.663,0,0,0-.105-.6,1.328,1.328,0,0,0-.3-.466,1.356,1.356,0,0,0-.466-.3,1.629,1.629,0,0,0-.6-.107H10.3Zm6.062,1.98h0v-3.106h1.127v3.106a2.182,2.182,0,0,0,.132.807,1.767,1.767,0,0,0,.336.549,1.6,1.6,0,0,0,.446.347,2.41,2.41,0,0,0,.462.187,2.218,2.218,0,0,0,.385.076q.166.014.219.014h1.98v-5.086h1.126v5.646a.582.582,0,0,1-.043.225.537.537,0,0,1-.121.18.613.613,0,0,1-.183.119.571.571,0,0,1-.22.043H19.472a3.514,3.514,0,0,1-.728-.078,3.272,3.272,0,0,1-.713-.241,3.056,3.056,0,0,1-.649-.413,2.7,2.7,0,0,1-.53-.6,2.9,2.9,0,0,1-.358-.789A3.507,3.507,0,0,1,16.364-91.085Zm7.5,1.525h0v-4.064a.556.556,0,0,1,.044-.22.592.592,0,0,1,.118-.183.537.537,0,0,1,.18-.121.586.586,0,0,1,.226-.043H29.5v1.126H24.987v3.505a.458.458,0,0,0,.116.338.467.467,0,0,0,.342.116H29.5v1.127H25.438a1.818,1.818,0,0,1-.512-.082,1.511,1.511,0,0,1-.513-.272,1.513,1.513,0,0,1-.4-.489A1.574,1.574,0,0,1,23.86-89.56Zm5.134-.957H25.438v-1.136h3.556Zm1.595,1.972h0v-5.646h1.127V-89.1H36.3v1.127H31.157a.586.586,0,0,1-.226-.043.561.561,0,0,1-.179-.119.548.548,0,0,1-.119-.18A.566.566,0,0,1,30.589-88.545Zm6.453-1.015h0v-3.05a1.718,1.718,0,0,1,.036-.336,1.748,1.748,0,0,1,.115-.355,1.544,1.544,0,0,1,.2-.336,1.379,1.379,0,0,1,.3-.284,1.5,1.5,0,0,1,.4-.2,1.706,1.706,0,0,1,.52-.073h4.064v1.126H38.623a.458.458,0,0,0-.338.118.47.47,0,0,0-.116.347h0v3.041a.456.456,0,0,0,.119.337.457.457,0,0,0,.336.118h4.064v1.127H38.623a1.657,1.657,0,0,1-.336-.037,1.686,1.686,0,0,1-.355-.114,1.653,1.653,0,0,1-.336-.2,1.364,1.364,0,0,1-.284-.3,1.49,1.49,0,0,1-.2-.408A1.725,1.725,0,0,1,37.042-89.56Zm7.72,1.582H43.636v-3.107a3.275,3.275,0,0,1,.234-1.252,2.913,2.913,0,0,1,.649-.983,2.962,2.962,0,0,1,.984-.642,3.279,3.279,0,0,1,1.238-.229h2.54a.571.571,0,0,1,.22.043.553.553,0,0,1,.182.121.557.557,0,0,1,.122.183.571.571,0,0,1,.043.22h0v5.646H48.723V-89.5H44.762Zm0-3.107v.455h3.961v-2.435H46.742q-.051,0-.218.015a2.214,2.214,0,0,0-.387.076,2.475,2.475,0,0,0-.46.186,1.637,1.637,0,0,0-.446.347,1.779,1.779,0,0,0-.336.553,2.155,2.155,0,0,0-.133.8Zm7.522,3.107H51.158v-5.646a.571.571,0,0,1,.043-.22.58.58,0,0,1,.119-.183.537.537,0,0,1,.18-.121.582.582,0,0,1,.225-.043H56a1.364,1.364,0,0,1,.636.136,1.323,1.323,0,0,1,.423.342,1.313,1.313,0,0,1,.233.444,1.547,1.547,0,0,1,.072.446h0v.72a2.291,2.291,0,0,1-.1.689,1.943,1.943,0,0,1-.258.535,1.823,1.823,0,0,1-.374.4,2.309,2.309,0,0,1-.444.27,2.122,2.122,0,0,1-.469.154,2.267,2.267,0,0,1-.444.047h0l2.353,2.033H55.893L53.546-90.01h-.811v-1.126h2.548a1.325,1.325,0,0,0,.387-.089.974.974,0,0,0,.3-.193.834.834,0,0,0,.2-.293,1.042,1.042,0,0,0,.069-.392h0v-.711a.349.349,0,0,0-.024-.144.169.169,0,0,0-.061-.073.163.163,0,0,0-.078-.029.732.732,0,0,0-.075,0H52.284Zm6.2-.567h0v-5.079a.556.556,0,0,1,.044-.22.592.592,0,0,1,.118-.183.537.537,0,0,1,.18-.121.586.586,0,0,1,.226-.043H62.1A2.715,2.715,0,0,1,63.134-94a2.5,2.5,0,0,1,.824.539,2.48,2.48,0,0,1,.544.824,2.713,2.713,0,0,1,.2,1.043h0v1.014a2.71,2.71,0,0,1-.2,1.044,2.468,2.468,0,0,1-.544.821,2.474,2.474,0,0,1-.824.539,2.7,2.7,0,0,1-1.036.2H59.057a.586.586,0,0,1-.226-.043.578.578,0,0,1-.18-.119.559.559,0,0,1-.118-.18A.566.566,0,0,1,58.489-88.545Zm1.127-4.52v3.96H62.1a1.641,1.641,0,0,0,.6-.105,1.356,1.356,0,0,0,.466-.3,1.308,1.308,0,0,0,.3-.463,1.634,1.634,0,0,0,.107-.6h0v-1.014a1.644,1.644,0,0,0-.107-.6,1.3,1.3,0,0,0-.3-.466,1.339,1.339,0,0,0-.466-.3,1.622,1.622,0,0,0-.6-.107H59.616Zm5.948.711h0a1.845,1.845,0,0,1,.18-.855,1.753,1.753,0,0,1,.451-.568,1.732,1.732,0,0,1,.588-.316,2.015,2.015,0,0,1,.589-.1h3.834v1.126H67.372a.644.644,0,0,0-.5.2.728.728,0,0,0-.18.516h0a.712.712,0,0,0,.18.513.657.657,0,0,0,.5.189h2.6a1.969,1.969,0,0,1,.385.05,1.967,1.967,0,0,1,.4.14,1.953,1.953,0,0,1,.383.241,1.615,1.615,0,0,1,.323.348,1.692,1.692,0,0,1,.223.469,1.991,1.991,0,0,1,.083.6h0a1.979,1.979,0,0,1-.085.6,1.8,1.8,0,0,1-.223.47,1.477,1.477,0,0,1-.326.347,2,2,0,0,1-.385.234,2.02,2.02,0,0,1-.4.134,1.9,1.9,0,0,1-.388.043H65.617V-89.1h4.345a.66.66,0,0,0,.5-.19.716.716,0,0,0,.18-.512h0a.834.834,0,0,0-.047-.286.674.674,0,0,0-.137-.226.615.615,0,0,0-.216-.147.756.756,0,0,0-.284-.051h-2.59a1.989,1.989,0,0,1-.589-.1,1.757,1.757,0,0,1-.588-.313,1.714,1.714,0,0,1-.451-.568A1.858,1.858,0,0,1,65.564-92.353Zm6.843,3.809h0a.544.544,0,0,1,.043-.215.536.536,0,0,1,.119-.177.6.6,0,0,1,.177-.122.532.532,0,0,1,.219-.046h0a.522.522,0,0,1,.215.046.6.6,0,0,1,.177.122.585.585,0,0,1,.121.177.516.516,0,0,1,.046.215h0a.522.522,0,0,1-.046.218.6.6,0,0,1-.121.179.567.567,0,0,1-.177.118.536.536,0,0,1-.215.044h0a.546.546,0,0,1-.219-.044.567.567,0,0,1-.177-.118.551.551,0,0,1-.119-.179A.551.551,0,0,1,72.407-88.545Zm3.141.567H74.422v-4.684h1.126Zm0-5.646H74.422v-1.018h1.126Zm.984,4.064h0v-1.525a1.561,1.561,0,0,1,.158-.733,1.5,1.5,0,0,1,.394-.489,1.525,1.525,0,0,1,.514-.272,1.814,1.814,0,0,1,.51-.082h2.033a1.6,1.6,0,0,1,.736.155,1.469,1.469,0,0,1,.489.392,1.544,1.544,0,0,1,.272.513,1.775,1.775,0,0,1,.085.516h0v1.525a1.7,1.7,0,0,1-.075.523,1.542,1.542,0,0,1-.194.408,1.354,1.354,0,0,1-.281.3,1.689,1.689,0,0,1-.337.2,1.687,1.687,0,0,1-.355.114,1.66,1.66,0,0,1-.34.037H78.108a1.814,1.814,0,0,1-.51-.082,1.525,1.525,0,0,1-.514-.272,1.522,1.522,0,0,1-.394-.489A1.574,1.574,0,0,1,76.532-89.56Zm1.126-1.525v1.525a.455.455,0,0,0,.118.338.464.464,0,0,0,.342.116h2.023a.456.456,0,0,0,.342-.116.469.469,0,0,0,.112-.338h0v-1.515a.462.462,0,0,0-.116-.347.468.468,0,0,0-.338-.114H78.118a.468.468,0,0,0-.342.115.448.448,0,0,0-.118.336Z" transform="translate(-9.177 94.641)" fill="#fff" stroke="#fff" stroke-width="0"/>
    </g>
  </g>
</svg>
